Coordinates
version=1
nRows=16
nColumns=40
inDegrees=yes

Units are S.I. units (second, meters, Newtons, ...)
Angles are in degrees.

endheader
time	pelvis_tilt	pelvis_list	pelvis_rotation	pelvis_tx	pelvis_ty	pelvis_tz	hip_flexion_r	hip_adduction_r	hip_rotation_r	knee_angle_r	knee_angle_r_beta	ankle_angle_r	subtalar_angle_r	mtp_angle_r	hip_flexion_l	hip_adduction_l	hip_rotation_l	knee_angle_l	knee_angle_l_beta	ankle_angle_l	subtalar_angle_l	mtp_angle_l	lumbar_extension	lumbar_bending	lumbar_rotation	arm_flex_r	arm_add_r	arm_rot_r	elbow_flex_r	pro_sup_r	wrist_flex_r	wrist_dev_r	arm_flex_l	arm_add_l	arm_rot_l	elbow_flex_l	pro_sup_l	wrist_flex_l	wrist_dev_l
      1.23000000	     -1.63861529	      1.39267612	      3.49126095	      0.18717560	      0.95470881	      1.58884996	     -3.74757733	     -2.39680045	    -16.21470718	    -11.45869915	     -0.19999203	      9.04279890	      3.93544185	    -15.39839569	     25.55272974	      2.59674048	     22.80665161	    -28.08490113	     -0.49017399	      5.16198791	     13.85157673	     12.40198014	     -1.71443520	     -4.23382876	      3.98994288	      3.61506385	    -12.85053066	    -15.10895360	     25.10035001	     89.95437384	      0.00000000	      0.00000000	     -8.10341260	     12.53780175	     12.68416597	     11.19482385	     89.95437384	      0.00000000	      0.00000000
      1.24000000	     -1.46515129	      1.48038679	      2.98605257	      0.19986640	      0.95310931	      1.58809529	     -4.93763831	     -2.57871099	    -16.60184328	    -11.13499038	     -0.19434224	      9.45111471	      4.93163769	    -15.77490049	     25.46629477	      2.47105321	     23.77307339	    -24.60895071	     -0.42950722	      4.74572362	     13.08913708	     12.43865862	     -1.87787392	     -4.36902824	      4.60994664	      4.15381486	    -13.23833194	    -14.15838493	     26.51149249	     89.95437384	      0.00000000	      0.00000000	     -9.24669018	     12.61630822	     12.82659471	      9.88674950	     89.95437384	      0.00000000	      0.00000000
      1.25000000	     -1.32923492	      1.47944646	      2.56843381	      0.21261560	      0.95126854	      1.58710034	     -6.09516312	     -2.68613559	    -17.10527946	    -10.84587903	     -0.18929630	      9.82939566	      5.86097575	    -16.29804337	     25.45798250	      2.44708876	     24.76853625	    -21.38034671	     -0.37315745	      4.33581258	     12.19059074	     12.35317517	     -1.98158036	     -4.37910166	      5.09795746	      4.64836228	    -13.63400915	    -13.29992286	     28.01558368	     89.95437384	      0.00000000	      0.00000000	    -10.44908181	     12.71792684	     12.41819036	      8.66310082	     89.95437384	      0.00000000	      0.00000000
      1.26000000	     -1.47094091	      1.23348525	      2.23094844	      0.22523598	      0.94880544	      1.58582789	     -6.97143969	     -2.50072161	    -17.41594824	    -10.43637228	     -0.18214906	     10.18961383	      6.41324018	    -16.58091284	     25.94351533	      2.64316074	     25.45787342	    -18.62937612	     -0.32514395	      3.86630096	     11.46303421	     12.40354937	     -1.75625336	     -4.10331317	      5.58526929	      5.00423049	    -14.07986584	    -12.77608202	     29.59632151	     89.95437384	      0.00000000	      0.00000000	    -11.62015517	     12.74735339	     12.13272805	      7.50206939	     89.95437384	      0.00000000	      0.00000000
      1.27000000	     -1.17810119	      1.22861754	      1.85101545	      0.23826615	      0.94696576	      1.58441514	     -8.29529486	     -2.67288590	    -18.30577256	    -10.18105691	     -0.17769296	     10.53385583	      7.80914445	    -17.08297968	     25.79501045	      2.71852202	     26.83202468	    -16.01641633	     -0.27953920	      3.39696605	      9.71167988	     11.93770788	     -2.00266692	     -4.08025194	      6.07582099	      5.33740924	    -14.51424152	    -12.06773588	     31.23167643	     89.95437384	      0.00000000	      0.00000000	    -12.91675416	     12.81613323	     11.19921651	      6.65544314	     89.95437384	      0.00000000	      0.00000000
      1.28000000	     -1.47260147	      0.87738652	      1.61543756	      0.25069846	      0.94414874	      1.58281955	     -8.87463150	     -2.38767808	    -18.73368536	     -9.98640903	     -0.17429572	     10.81404302	      8.02371155	    -17.19328611	     26.51136055	      3.01690397	     27.07892005	    -13.95271972	     -0.24352090	      3.12653897	      8.61571515	     11.89276211	     -1.63501805	     -3.70136581	      6.43294190	      5.66989084	    -14.86648110	    -11.89144131	     32.75846440	     89.95437384	      0.00000000	      0.00000000	    -14.09035161	     12.78528885	     10.97975463	      5.71885478	     89.95437384	      0.00000000	      0.00000000
      1.29000000	     -1.04792700	      0.88987381	      1.42657375	      0.26450156	      0.94252361	      1.58066339	    -10.38953369	     -2.64259363	    -20.16846562	     -9.81397702	     -0.17128621	     10.95542055	      9.94270514	    -18.24191173	     26.26191893	      3.17965808	     28.89428708	    -12.15369325	     -0.21212196	      0.45304241	      5.77089683	      1.73754443	     -1.94087447	     -3.63300690	      6.89726174	      5.65283261	    -15.30393653	    -11.71927226	     34.64534262	     89.95437384	      0.00000000	      0.00000000	    -15.37736912	     12.89681750	      8.31392256	      5.09886978	     89.95437384	      0.00000000	      0.00000000
      1.30000000	     -1.26472917	      0.73868734	      1.17720332	      0.27720824	      0.94003956	      1.57870169	    -11.00328414	     -2.63863956	    -20.48593461	     -9.80266546	     -0.17108879	     11.08952771	      9.98509740	    -18.22227714	     26.80635653	      3.29128161	     28.76663350	    -10.75151634	     -0.18764936	      0.23951928	      4.57655081	      1.72660614	     -1.66574007	     -3.45341341	      7.24856695	      5.90970201	    -15.57342593	    -11.76124014	     36.11031314	     89.95437384	      0.00000000	      0.00000000	    -16.51646072	     12.81263704	      8.29262736	      4.43379676	     89.95437384	      0.00000000	      0.00000000
      1.31000000	     -0.84593979	      0.95481739	      0.93732323	      0.29066376	      0.93881680	      1.57650412	    -12.34346066	     -3.14234188	    -21.31903398	     -9.89953642	     -0.17277951	     11.12363880	     10.80746048	    -18.22940765	     26.46979790	      3.15529062	     29.45264644	     -9.61810852	     -0.16786766	     -0.42289577	      2.11561637	      1.56676960	     -2.06970837	     -3.66978665	      7.60748793	      6.10740744	    -15.82632080	    -11.76173869	     37.62859730	     89.95437384	      0.00000000	      0.00000000	    -17.56233359	     12.79844346	      7.25162911	      3.84376798	     89.95437384	      0.00000000	      0.00000000
      1.32000000	     -1.00226458	      0.90559138	      0.63636107	      0.30378239	      0.93680211	      1.57447595	    -12.87162319	     -3.35776370	    -21.33213281	    -10.22512204	     -0.17846205	     10.98728779	     10.96557042	    -18.07552421	     26.87089338	      3.27014697	     28.85508251	     -9.10785440	     -0.15896205	     -0.40807540	      1.35582890	      1.46438993	     -1.82839872	     -3.64556341	      7.98787378	      6.30147698	    -15.95579776	    -11.99540211	     38.89958443	     89.95437384	      0.00000000	      0.00000000	    -18.70221239	     12.72220083	      7.22961087	      3.48863478	     89.95437384	      0.00000000	      0.00000000
      1.33000000	     -1.09173591	      0.90832279	      0.36884914	      0.31735669	      0.93520391	      1.57241682	    -13.40836023	     -3.65106696	    -21.18364712	    -10.75111611	     -0.18764237	     10.77386295	     10.69785407	    -17.80293895	     27.28862291	      3.43365278	     28.33747596	     -9.35442232	     -0.16326547	     -0.52171466	      1.25808004	      1.44699944	     -1.60210284	     -3.70509902	      8.14492067	      6.76027723	    -15.95859070	    -12.10801111	     39.62232743	     89.95437384	      0.00000000	      0.00000000	    -19.89524490	     12.58059611	      7.18033147	      3.26619324	     89.95437384	      0.00000000	      0.00000000
      1.34000000	     -0.81588916	      1.27581434	      0.06057116	      0.33151850	      0.93433679	      1.57000777	    -14.27573361	     -4.46538838	    -21.16208124	    -11.45175795	     -0.19987088	     10.43255476	     10.83879522	    -17.55818286	     26.93496806	      3.10182297	     27.27210847	     -9.44630223	     -0.16486908	     -0.29144039	      1.00466766	      1.27808581	     -1.81789751	     -4.15648296	      8.60493312	      6.46403019	    -15.99356562	    -12.62623555	     41.42388153	     89.95437384	      0.00000000	      0.00000000	    -20.75087849	     12.54056999	      7.09556712	      2.90668815	     89.95437384	      0.00000000	      0.00000000
      1.35000000	     -0.39546080	      1.76204526	     -0.32488459	      0.34609048	      0.93402917	      1.56757865	    -15.21288810	     -5.50375138	    -21.26089387	    -12.36283544	     -0.21577218	     10.02930803	     11.09479874	    -17.31848415	     26.46586805	      2.70476673	     26.46817631	    -10.13263389	     -0.17684782	     -0.18161871	      1.85449278	      1.15285821	     -2.12754201	     -4.78339659	      8.90567210	      6.57391476	    -15.81706954	    -13.15157007	     42.47838295	     89.95437384	      0.00000000	      0.00000000	    -21.67213707	     12.45319362	      7.06497766	      2.66159714	     89.95437384	      0.00000000	      0.00000000
      1.36000000	     -0.24555872	      2.57070013	     -0.54535031	      0.36090786	      0.93347528	      1.56429537	    -15.70770408	     -7.11614415	    -22.05467336	    -13.73203628	     -0.23966925	      9.66007425	     12.74675864	    -17.45686876	     25.92486832	      1.48410427	     23.77569485	    -10.25056969	     -0.17890619	     -0.28112728	      5.10633669	      0.99834657	     -2.09171149	     -5.75935701	      8.95096209	      6.55964587	    -15.65978302	    -13.35022537	     43.47829665	     89.95437384	      0.00000000	      0.00000000	    -22.73233190	     12.33866645	      7.57606486	      2.75198111	     89.95437384	      0.00000000	      0.00000000
      1.37000000	     -0.05989082	      2.84907316	     -0.79866144	      0.37620065	      0.93308188	      1.56144385	    -16.38714881	     -7.90935396	    -21.59733057	    -14.62057137	     -0.25517711	      8.85121144	     12.40210452	    -17.03462844	     25.68358463	      1.20764646	     22.42907484	    -11.60171040	     -0.20248805	      0.28294314	      5.96328575	      0.94215508	     -2.03525263	     -6.17188756	      9.08452374	      6.30609647	    -15.43027145	    -13.84520427	     44.62645799	     89.95437384	      0.00000000	      0.00000000	    -23.64407239	     12.19463215	      8.03047353	      2.70250697	     89.95437384	      0.00000000	      0.00000000
      1.38000000	      0.09532820	      3.33052852	     -0.88685556	      0.39179332	      0.93284497	      1.55792202	    -17.01260575	     -9.00911351	    -21.61977453	    -15.66703463	     -0.27344134	      7.80094303	     12.56010798	    -16.70646633	     25.23431196	      0.44792866	     20.56469204	    -12.65792823	     -0.22092252	      0.48177836	      8.08423626	      1.34306299	     -1.90552612	     -6.79110372	      8.97470456	      6.04214628	    -15.24913603	    -14.01783679	     45.60103987	     89.95437384	      0.00000000	      0.00000000	    -24.50113160	     12.01027204	      8.72993374	      2.68483245	     89.95437384	      0.00000000	      0.00000000
